<?xml version="1.0" standalone="no"?>
<!DOCTYPE svg PUBLIC "-//W3C//DTD SVG 20010904//EN"
 "http://www.w3.org/TR/2001/REC-SVG-20010904/DTD/svg10.dtd">
<svg version="1.0" xmlns="http://www.w3.org/2000/svg"
 width="253.000000pt" height="300.000000pt" viewBox="0 0 253.000000 300.000000"
 preserveAspectRatio="xMidYMid meet">

<g transform="translate(0.000000,300.000000) scale(0.100000,-0.100000)"
fill="#000000" stroke="none">
<path d="M627 2698 l-518 -300 690 -415 691 -414 2 -783 3 -784 515 298 515
298 3 785 2 785 -691 416 c-380 229 -692 416 -692 415 -1 0 -235 -135 -520
-301z"/>
<path d="M525 1014 c-280 -162 -511 -298 -512 -302 -1 -4 228 -145 510 -314
l512 -306 3 304 c1 167 1 441 0 609 l-3 304 -510 -295z"/>
</g>
</svg>
